<svg width="18" height="14" viewBox="0 0 18 14" fill="none" xmlns="http://www.w3.org/2000/svg">
<path d="M2.75 0.282837C2.24219 0.282837 1.79948 0.471639 1.42188 0.849243C1.05729 1.21383 0.875 1.65002 0.875 2.15784V6.39612C0.679688 6.57841 0.523438 6.78674 0.40625 7.02112C0.302083 7.25549 0.25 7.5094 0.25 7.78284V13.4078H3.375V12.1578H14.625V13.4078H17.75V7.78284C17.75 7.5094 17.6914 7.25549 17.5742 7.02112C17.4701 6.78674 17.3203 6.57841 17.125 6.39612V2.15784C17.125 1.65002 16.9362 1.21383 16.5586 0.849243C16.194 0.471639 15.7578 0.282837 15.25 0.282837H2.75ZM2.75 1.53284H15.25C15.4193 1.53284 15.5625 1.59794 15.6797 1.72815C15.8099 1.84534 15.875 1.98857 15.875 2.15784V5.90784H14.625V5.28284C14.625 4.77502 14.4362 4.33883 14.0586 3.97424C13.694 3.59664 13.2578 3.40784 12.75 3.40784H10.25C9.78125 3.40784 9.36458 3.5706 9 3.89612C8.63542 3.5706 8.21875 3.40784 7.75 3.40784H5.25C4.74219 3.40784 4.29948 3.59664 3.92188 3.97424C3.55729 4.33883 3.375 4.77502 3.375 5.28284V5.90784H2.125V2.15784C2.125 1.98857 2.18359 1.84534 2.30078 1.72815C2.43099 1.59794 2.58073 1.53284 2.75 1.53284ZM5.25 4.65784H7.75C7.91927 4.65784 8.0625 4.72294 8.17969 4.85315C8.3099 4.97034 8.375 5.11357 8.375 5.28284V5.90784H4.625V5.28284C4.625 5.11357 4.68359 4.97034 4.80078 4.85315C4.93099 4.72294 5.08073 4.65784 5.25 4.65784ZM10.25 4.65784H12.75C12.9193 4.65784 13.0625 4.72294 13.1797 4.85315C13.3099 4.97034 13.375 5.11357 13.375 5.28284V5.90784H9.625V5.28284C9.625 5.11357 9.68359 4.97034 9.80078 4.85315C9.93099 4.72294 10.0807 4.65784 10.25 4.65784ZM2.125 7.15784H15.875C16.0443 7.15784 16.1875 7.22294 16.3047 7.35315C16.4349 7.47034 16.5 7.61357 16.5 7.78284V12.1578H15.875V10.9078H2.125V12.1578H1.5V7.78284C1.5 7.61357 1.55859 7.47034 1.67578 7.35315C1.80599 7.22294 1.95573 7.15784 2.125 7.15784Z" fill="#6B7280"/>
</svg>
