<svg width="12" height="16" viewBox="0 0 12 16" fill="none" xmlns="http://www.w3.org/2000/svg">
<path d="M5.92188 0.0328369L5.86328 0.0523682L0.375 1.34143V13.9977L0.882812 14.0758L5.88281 15.0133L5.94141 15.0328H7.25V0.0328369H5.92188ZM8.5 1.28284V2.53284H10.375V12.5328H8.5V13.7828H11.625V1.28284H8.5ZM6 1.30237V13.7828L1.625 12.9625V2.31799L6 1.30237ZM4.96484 6.90784C4.84766 6.90784 4.74349 6.97294 4.65234 7.10315C4.57422 7.22034 4.53516 7.36357 4.53516 7.53284C4.53516 7.70211 4.57422 7.85185 4.65234 7.98206C4.74349 8.09924 4.84766 8.15784 4.96484 8.15784C5.08203 8.15784 5.17969 8.09924 5.25781 7.98206C5.33594 7.85185 5.375 7.70211 5.375 7.53284C5.375 7.36357 5.33594 7.22034 5.25781 7.10315C5.17969 6.97294 5.08203 6.90784 4.96484 6.90784Z" fill="#6B7280"/>
</svg>
