<svg width="20" height="16" viewBox="0 0 20 16" fill="none" xmlns="http://www.w3.org/2000/svg">
<path d="M16.25 0.0328369C15.7943 0.0328369 15.3711 0.143514 14.9805 0.364868C14.6029 0.586222 14.3034 0.892212 14.082 1.28284C13.8607 1.66044 13.75 2.07711 13.75 2.53284H12.5V3.78284H16.25V2.53284H15C15 2.15523 15.1107 1.85575 15.332 1.6344C15.5664 1.40002 15.8724 1.28284 16.25 1.28284C16.6276 1.28284 16.9271 1.40002 17.1484 1.6344C17.3828 1.85575 17.5 2.15523 17.5 2.53284V6.28284H0.625V7.53284H1.36719L2.32422 12.2985C2.40234 12.624 2.55208 12.9104 2.77344 13.1578C2.99479 13.4052 3.26172 13.581 3.57422 13.6852L3.125 15.0328H4.375L4.78516 13.7828H15.2148L15.625 15.0328H16.875L16.4258 13.6852C16.7513 13.581 17.0312 13.4052 17.2656 13.1578C17.5 12.9104 17.6562 12.624 17.7344 12.2985L18.6328 7.53284H19.375V6.28284H18.75V2.53284C18.75 2.07711 18.6393 1.66044 18.418 1.28284C18.1966 0.892212 17.8906 0.586222 17.5 0.364868C17.1224 0.143514 16.7057 0.0328369 16.25 0.0328369ZM2.63672 7.53284H17.3828L16.5039 12.0446C16.4648 12.1878 16.3867 12.305 16.2695 12.3961C16.1654 12.4873 16.0352 12.5328 15.8789 12.5328H4.17969C4.02344 12.5328 3.88672 12.4873 3.76953 12.3961C3.66536 12.292 3.59375 12.1683 3.55469 12.025L2.63672 7.53284Z" fill="#6B7280"/>
</svg>
