<svg width="14" height="15" viewBox="0 0 14 15" fill="none" xmlns="http://www.w3.org/2000/svg">
<path d="M7 0.657837C6.20573 0.657837 5.47005 0.853149 4.79297 1.24377C4.12891 1.6344 3.60156 2.16825 3.21094 2.84534C2.82031 3.5094 2.625 4.23857 2.625 5.03284C2.625 5.77502 2.79427 6.46513 3.13281 7.10315C3.48438 7.74117 3.95964 8.262 4.55859 8.66565C3.81641 8.99117 3.15234 9.44039 2.56641 10.0133C1.99349 10.5862 1.55078 11.2438 1.23828 11.986C0.91276 12.7542 0.75 13.5615 0.75 14.4078H2C2 13.4964 2.22135 12.663 2.66406 11.9078C3.11979 11.1396 3.72526 10.5341 4.48047 10.0914C5.2487 9.6357 6.08854 9.40784 7 9.40784C7.91146 9.40784 8.74479 9.6357 9.5 10.0914C10.2682 10.5341 10.8737 11.1396 11.3164 11.9078C11.7721 12.663 12 13.4964 12 14.4078H13.25C13.25 13.5615 13.0872 12.7542 12.7617 11.986C12.4492 11.2438 12 10.5862 11.4141 10.0133C10.8411 9.44039 10.1836 8.99117 9.44141 8.66565C10.0404 8.262 10.5091 7.74117 10.8477 7.10315C11.1992 6.46513 11.375 5.77502 11.375 5.03284C11.375 4.23857 11.1797 3.5094 10.7891 2.84534C10.3984 2.16825 9.86458 1.6344 9.1875 1.24377C8.52344 0.853149 7.79427 0.657837 7 0.657837ZM7 1.90784C7.57292 1.90784 8.09375 2.05107 8.5625 2.33752C9.04427 2.61096 9.42188 2.98857 9.69531 3.47034C9.98177 3.93909 10.125 4.45992 10.125 5.03284C10.125 5.60575 9.98177 6.1331 9.69531 6.61487C9.42188 7.08362 9.04427 7.46122 8.5625 7.74768C8.09375 8.02112 7.57292 8.15784 7 8.15784C6.42708 8.15784 5.89974 8.02112 5.41797 7.74768C4.94922 7.46122 4.57161 7.08362 4.28516 6.61487C4.01172 6.1331 3.875 5.60575 3.875 5.03284C3.875 4.45992 4.01172 3.93909 4.28516 3.47034C4.57161 2.98857 4.94922 2.61096 5.41797 2.33752C5.89974 2.05107 6.42708 1.90784 7 1.90784Z" fill="#6B7280"/>
</svg>
