<svg width="20" height="19" viewBox="0 0 20 19" fill="none" xmlns="http://www.w3.org/2000/svg">
<path d="M2.32422 0.958618L1.42578 1.85706L17.6758 18.1071L18.5742 17.2086L14.6484 13.2828H19.375V9.53284H10.8984L2.32422 0.958618ZM10.0195 2.03284C9.8112 2.24117 9.61589 2.54716 9.43359 2.95081C9.1862 3.48466 9.0625 4.00549 9.0625 4.51331C9.0625 4.83883 9.12109 5.15133 9.23828 5.45081C9.35547 5.77633 9.54427 6.06278 9.80469 6.31018C10.3516 6.83101 11.1849 7.16305 12.3047 7.30627C13.2422 7.42346 13.8802 7.58622 14.2188 7.79456C14.388 7.89872 14.5182 8.01591 14.6094 8.14612C14.7005 8.27633 14.7721 8.47164 14.8242 8.73206L16.0547 8.45862C15.9766 8.08101 15.8333 7.74247 15.625 7.44299C15.4297 7.14351 15.1823 6.90914 14.8828 6.73987C14.5833 6.55758 14.2253 6.40784 13.8086 6.29065C13.4701 6.1995 13.0208 6.12138 12.4609 6.05627C11.6146 5.95211 11.0156 5.73075 10.6641 5.39221C10.5339 5.262 10.4427 5.1318 10.3906 5.00159C10.3385 4.85836 10.3125 4.6956 10.3125 4.51331C10.3125 4.18778 10.3971 3.84273 10.5664 3.47815C10.6315 3.3219 10.7357 3.14612 10.8789 2.95081C10.8919 2.92476 10.8984 2.91174 10.8984 2.91174L10.0195 2.03284ZM13.4766 2.22815V3.47815C13.9974 3.47815 14.4206 3.5693 14.7461 3.75159C14.9674 3.8818 15.1367 4.03805 15.2539 4.22034C15.3971 4.45471 15.4883 4.78023 15.5273 5.1969L15.5859 5.78284H16.1523C16.3607 5.78284 16.582 5.80888 16.8164 5.86096C17.1029 5.93909 17.3242 6.04325 17.4805 6.17346C17.6497 6.32971 17.7539 6.54456 17.793 6.81799C17.8451 7.22164 17.7409 7.73596 17.4805 8.36096L18.6523 8.82971C18.9909 8.0094 19.1211 7.28674 19.043 6.66174C18.9779 6.08883 18.724 5.61357 18.2812 5.23596C17.8516 4.85836 17.2982 4.637 16.6211 4.5719C16.5169 4.11617 16.3542 3.72555 16.1328 3.40002C15.9115 3.0745 15.6576 2.82711 15.3711 2.65784C14.8633 2.37138 14.2318 2.22815 13.4766 2.22815ZM0.625 9.53284V13.2828H11.1328L9.88281 12.0328H1.875V10.7828H8.63281L7.38281 9.53284H0.625ZM12.1484 10.7828H14.375V12.0328H13.3984L12.1484 10.7828ZM15.625 10.7828H16.25V12.0328H15.625V10.7828ZM17.5 10.7828H18.125V12.0328H17.5V10.7828Z" fill="#6B7280"/>
</svg>
