<svg width="16" height="13" viewBox="0 0 16 13" fill="none" xmlns="http://www.w3.org/2000/svg">
<path d="M8 0.907837C6.46354 0.907837 4.99219 1.21383 3.58594 1.82581C2.23177 2.39872 1.03385 3.21903 -0.0078125 4.28674L0.871094 5.16565C1.79557 4.21513 2.86328 3.47945 4.07422 2.95862C5.32422 2.42476 6.63281 2.15784 8 2.15784C9.36719 2.15784 10.6758 2.42476 11.9258 2.95862C13.1367 3.47945 14.2044 4.21513 15.1289 5.16565L16.0078 4.28674C14.9661 3.21903 13.7682 2.39872 12.4141 1.82581C11.0078 1.21383 9.53646 0.907837 8 0.907837ZM8 4.03284C6.88021 4.03284 5.8125 4.25419 4.79688 4.6969C3.82031 5.12659 2.95443 5.72555 2.19922 6.49377L3.07812 7.37268C3.71615 6.72164 4.45182 6.21383 5.28516 5.84924C6.14453 5.47164 7.04948 5.28284 8 5.28284C8.95052 5.28284 9.85547 5.47164 10.7148 5.84924C11.5482 6.21383 12.2839 6.72164 12.9219 7.37268L13.8008 6.49377C13.0456 5.72555 12.1797 5.12659 11.2031 4.6969C10.1875 4.25419 9.11979 4.03284 8 4.03284ZM8 7.15784C7.3099 7.15784 6.65234 7.29456 6.02734 7.56799C5.41536 7.84143 4.875 8.21903 4.40625 8.70081L5.28516 9.57971C5.63672 9.21513 6.04688 8.92867 6.51562 8.72034C6.98438 8.512 7.47917 8.40784 8 8.40784C8.52083 8.40784 9.01562 8.512 9.48438 8.72034C9.95312 8.92867 10.3633 9.21513 10.7148 9.57971L11.5938 8.70081C11.125 8.21903 10.5781 7.84143 9.95312 7.56799C9.34115 7.29456 8.6901 7.15784 8 7.15784ZM8 10.2828C7.72656 10.2828 7.47266 10.3414 7.23828 10.4586C7.00391 10.5628 6.79557 10.7125 6.61328 10.9078L8 12.2946L9.38672 10.9078C9.20443 10.7125 8.99609 10.5628 8.76172 10.4586C8.52734 10.3414 8.27344 10.2828 8 10.2828Z" fill="#6B7280"/>
</svg>
